<svg version="1.1" id="Layer_1" xmlns="http://www.w3.org/2000/svg" xmlns:xlink="http://www.w3.org/1999/xlink" x="0px" y="0px"
	 width="100%" viewBox="0 0 448 352" enable-background="new 0 0 448 352" xml:space="preserve">
<path fill="#000000" opacity="1.000000" stroke="none" 
	d="
M408.000000,353.000000 
	C301.979095,353.000000 195.958206,353.000000 89.546234,352.671143 
	C89.572372,348.382568 87.127823,344.463501 88.834808,340.522278 
	C90.394684,336.920746 89.328064,334.094269 86.775055,331.475677 
	C84.365005,329.003723 82.163712,325.994415 83.395805,322.565979 
	C86.999138,312.539307 82.014381,304.776184 77.238121,296.939362 
	C74.808716,292.953186 72.075714,289.159760 70.910927,284.546906 
	C69.424889,278.661804 67.013725,273.246429 63.182865,268.468323 
	C60.565071,265.203247 59.047005,261.274506 60.267826,257.250244 
	C63.286251,247.300400 60.903290,238.163834 56.858521,229.188202 
	C54.816490,224.656738 54.649391,220.219284 56.677925,215.669510 
	C58.315891,211.995758 58.271866,208.251312 57.026176,204.456039 
	C55.827374,200.803619 55.266510,197.037003 54.838871,193.209030 
	C53.909290,184.887955 51.738232,176.761169 48.337856,169.191437 
	C43.249466,157.863968 40.344601,146.654572 43.070778,134.044128 
	C45.288940,123.783630 48.056805,120.293594 58.392921,118.797157 
	C70.365219,117.063850 82.592575,118.718010 94.493530,114.855560 
	C102.634972,112.213264 109.223587,108.348167 114.466972,101.670937 
	C123.751961,89.846901 129.808945,76.406342 134.927902,62.427525 
	C137.389420,55.705627 139.669037,48.660961 145.386475,43.934216 
	C157.596313,33.840046 170.760132,25.661873 187.247238,24.534306 
	C193.749207,24.089630 200.165817,23.797478 206.665085,24.652737 
	C215.359940,25.796923 226.185150,21.321672 228.331696,15.333714 
	C230.144333,10.277229 232.208710,5.684632 237.392700,2.613143 
	C235.152512,1.943027 233.576248,1.471514 232.000000,1.000001 
	C248.020889,1.000000 264.041779,1.000000 280.404175,1.226756 
	C279.989136,5.251039 283.338074,8.048654 283.147003,11.814001 
	C282.912048,16.444366 285.414551,19.547029 289.505249,21.665195 
	C302.489990,28.388760 315.248047,35.554012 328.206085,42.322311 
	C341.523590,49.278347 353.921783,53.223194 369.346527,51.687042 
	C384.444427,50.183445 397.390839,55.987892 402.776978,73.959068 
	C406.214142,85.427238 410.634857,96.623749 416.635162,107.074898 
	C419.532043,112.120567 422.694336,116.845215 427.539429,120.512878 
	C434.147858,125.515358 441.501831,125.197044 449.000000,125.000000 
	C449.000000,162.354233 449.000000,199.708450 448.654175,237.608200 
	C445.621704,238.849152 443.388824,240.328888 441.798462,242.539764 
	C434.163391,253.154037 426.714020,263.844543 428.824768,278.059814 
	C429.114197,280.008728 428.827057,282.048676 428.756866,284.044678 
	C428.429749,293.346558 427.787476,302.636749 428.644440,311.955627 
	C429.172241,317.694977 429.058685,323.703033 424.525757,327.862183 
	C417.947998,333.897552 413.731293,341.632233 408.352936,348.519135 
	C407.305603,349.860229 405.488098,351.306091 408.000000,353.000000 
M181.510483,216.655930 
	C191.508759,216.649948 201.507202,216.679565 211.505280,216.631378 
	C242.611038,216.481430 265.875793,187.307571 259.151917,156.913055 
	C253.928421,133.300858 235.119659,118.005669 210.385727,117.492592 
	C203.662903,117.353127 196.885529,116.996696 189.369156,117.939003 
	C192.818710,123.842010 197.536087,127.416748 201.097855,131.928543 
	C203.780396,135.326569 207.052948,136.651245 211.462769,136.721161 
	C224.408081,136.926392 233.660156,143.360855 238.768768,155.100403 
	C244.008392,167.141037 241.582489,178.192703 232.980438,187.986511 
	C226.290283,195.603546 217.490204,197.970367 207.815186,198.016678 
	C195.984512,198.073273 184.153214,197.989120 172.322296,198.012344 
	C169.825348,198.017242 167.225967,197.885513 166.437851,201.253586 
	C163.644547,213.190887 166.344650,216.666931 178.517578,216.657516 
	C179.184128,216.656998 179.850693,216.656693 181.510483,216.655930 
M270.003296,243.899261 
	C272.695953,245.227417 275.577698,244.579178 278.369354,244.607666 
	C285.526398,244.680710 285.629211,244.523682 285.630463,237.351639 
	C285.636719,201.027252 285.635498,164.702881 285.637115,128.378494 
	C285.637573,117.428154 285.637848,117.428162 274.809814,117.452797 
	C266.999298,117.470566 266.388428,118.079056 266.387482,126.066818 
	C266.384308,152.227005 266.413757,178.387238 266.354980,204.547287 
	C266.350861,206.374420 267.199188,208.536438 265.206848,210.074570 
	C264.691956,209.814606 264.209412,209.657333 263.830109,209.365784 
	C260.866760,207.087830 259.358063,201.920639 255.422531,202.323517 
	C251.616882,202.713104 249.307297,207.127579 246.303070,209.729782 
	C245.926147,210.056274 245.616821,210.463333 245.229156,210.774475 
	C242.747955,212.765717 242.758270,214.645203 244.978439,217.011383 
	C253.184952,225.757568 261.254883,234.631912 270.003296,243.899261 
M184.700424,188.814804 
	C185.623337,177.376740 183.949509,165.801529 185.666702,154.214188 
	C188.484848,154.841522 189.490921,156.477844 190.702347,157.791931 
	C198.040878,165.752350 205.266937,173.817474 212.665848,181.720963 
	C221.224503,190.863235 219.219391,192.010422 229.416641,181.868393 
	C233.132309,178.172852 232.934036,175.546692 229.502716,171.865936 
	C214.282822,155.539703 199.109558,139.163605 184.272186,122.491592 
	C180.459824,118.207848 176.331635,117.056534 171.060013,117.389389 
	C167.669037,117.603516 166.348709,119.099297 166.356552,122.395927 
	C166.407730,143.886490 166.389450,165.377228 166.395569,186.867905 
	C166.395996,188.383926 166.427902,189.877350 167.851334,190.899673 
	C170.127991,192.534805 181.841415,191.649353 184.700424,188.814804 
z"/>
</svg>